Coordinates
version=1
nRows=20
nColumns=33
inDegrees=yes

Units are S.I. units (second, meters, Newtons, ...)
Angles are in degrees.

endheader
time	ground_thorax_rot_x	ground_thorax_rot_y	ground_thorax_rot_z	ground_thorax_tx	ground_thorax_ty	ground_thorax_tz	clav_prot_r	clav_elev_r	scapula_abduction_r	scapula_elevation_r	scapula_upward_rot_r	scapula_winging_r	shoulder_elv_r	plane_of_elev_r	axial_rot_r	elbow_flexion_r	pro_sup_r	wrist_flex_r	wrist_dev_r	clav_prot_l	clav_elev_l	scapula_abduction_l	scapula_elevation_l	scapula_upward_rot_l	scapula_winging_l	shoulder_elv_l	plane_of_elev_l	axial_rot_l	elbow_flexion_l	pro_sup_l	wrist_flex_l	wrist_dev_l	
3.9000	38.647969	0.451005	4.468687	-45.943564	789.136585	2.830301	15.300984	43.220715	44.999980	44.200182	-20.852417	-2598.689613	-3712.262900	144.761727	-173.981427	367.486787	25.996737	16.804225	14.495190	4.592549	-45.000000	-44.999992	45.000000	-5.457191	-634.673515	-1901.710172	137.757429	180.000000	3.872204	24.727275	9.928332	-19.040356	
3.9100	38.658907	0.425913	4.419302	-47.924784	789.511598	2.554010	15.052935	43.137620	44.999965	44.251487	-20.625606	-2598.993641	-3712.262217	144.866666	-173.281411	367.886364	26.214063	16.978336	14.042783	4.591772	-45.000000	-44.999986	45.000000	-5.316508	-634.326775	-1901.630753	137.681617	180.000000	4.063089	24.207730	10.053727	-19.003031	
3.9200	38.688361	0.403975	4.414850	-50.044749	789.836758	2.197794	14.830156	43.091128	44.999937	44.332862	-20.548336	-2599.234990	-3712.233351	144.960808	-172.691200	368.275281	26.165462	17.121283	13.567786	4.613239	-45.000000	-44.999975	45.000000	-5.230877	-633.986250	-1901.550661	137.624142	180.000000	4.247738	23.669478	10.192186	-18.952700	
3.9300	38.737419	0.424589	4.504954	-52.443221	790.073013	1.696222	14.801807	43.105655	44.999888	44.420007	-20.775961	-2599.427544	-3712.128299	144.995273	-172.447405	368.579620	25.542103	17.167300	13.111988	4.638560	-45.000000	-44.999955	45.000000	-5.244198	-633.615031	-1901.468806	137.563932	180.000000	4.420379	23.089506	10.268800	-18.945687	
3.9400	38.813674	0.489717	4.712531	-55.169838	790.180840	0.994021	14.911662	43.088859	44.999799	44.502043	-21.303379	-2599.557474	-3711.964345	145.001667	-172.476034	368.830731	24.170818	17.120670	12.659000	4.683708	-45.000000	-44.999919	45.000000	-5.371130	-633.219356	-1901.389850	137.526294	180.000000	4.591853	22.466190	10.321266	-18.961713	
3.9500	38.924512	0.641902	5.098441	-58.292653	790.114946	0.027160	15.188816	43.051630	44.999640	44.573489	-22.233487	-2599.622314	-3711.744609	144.973893	-172.715604	369.024370	21.619006	16.952701	12.215450	4.803991	-45.000000	-44.999855	45.000000	-5.741087	-632.798042	-1901.297878	137.494446	180.000000	4.767383	21.757331	10.355688	-18.987610	
3.9600	39.072255	0.877010	5.666815	-61.841961	789.850500	-1.240047	15.585228	42.877585	44.999355	44.610970	-23.527659	-2599.624875	-3711.493965	144.948568	-173.043621	369.179973	17.487190	16.665872	11.807805	5.012445	-45.000000	-44.999740	45.000000	-6.367029	-632.360238	-1901.189046	137.482274	180.000000	4.964377	20.942282	10.390631	-19.019522	
3.9700	39.259767	1.151937	6.363714	-65.810774	789.402516	-2.792755	16.047645	42.633430	44.998846	44.612310	-25.098297	-2599.587420	-3711.264354	144.922082	-173.233934	369.292191	11.084771	16.230795	11.458123	5.286170	-45.000000	-44.999534	45.000000	-7.188866	-631.896201	-1901.071868	137.466857	180.000000	5.169970	19.995269	10.447192	-19.040682	
3.9800	39.476127	1.427737	7.125880	-70.154515	788.845474	-4.543882	16.487388	42.276002	44.997930	44.564550	-26.751981	-2599.550598	-3711.096207	144.932133	-173.166923	369.396252	2.808790	15.720657	11.176541	5.591223	-45.000000	-44.999165	45.000000	-8.093509	-631.415495	-1900.954636	137.475596	180.000000	5.391483	18.995889	10.510767	-19.071464	
3.9900	39.710128	1.685458	7.894745	-74.797384	788.302396	-6.347600	16.890074	41.937294	44.996298	44.515398	-28.443900	-2599.524690	-3710.997471	144.956896	-172.842863	369.515779	-7.033865	15.160707	10.971822	5.897509	-45.000000	-44.998503	45.000000	-9.011802	-630.906856	-1900.846336	137.485977	180.000000	5.603807	17.989014	10.584263	-19.104938	
4.0000	39.944318	1.860075	8.543376	-79.644253	787.928224	-8.019998	17.141813	41.628346	44.993354	44.463574	-29.863367	-2599.565682	-3710.987447	145.043484	-172.259702	369.684770	-16.963520	14.682549	10.817852	6.146879	-45.000000	-44.997321	45.000000	-9.756469	-630.391706	-1900.751639	137.528490	180.000000	5.812492	17.085644	10.637896	-19.168818	
4.0100	40.156899	2.005832	9.085439	-84.609511	787.862085	-9.395924	17.344231	41.469670	44.988139	44.473086	-31.119322	-2599.670650	-3711.035744	145.138376	-171.554658	369.894277	-26.355242	14.304943	10.697022	6.357093	-45.000000	-44.995196	45.000000	-10.417910	-629.853423	-1900.655930	137.559055	180.000000	6.002197	16.319667	10.680898	-19.252765	
4.0200	40.327450	2.146487	9.507722	-89.638359	788.195633	-10.366594	17.433081	41.390599	44.978629	44.524649	-32.111237	-2599.868265	-3711.112490	145.271264	-170.796355	370.146889	-33.895387	14.104727	10.589812	6.543429	-45.000000	-44.991407	45.000000	-11.015914	-629.330909	-1900.531060	137.610969	180.000000	6.196510	15.734717	10.679864	-19.374023	
4.0300	40.437061	2.396823	9.932676	-94.721384	788.942390	-10.914621	17.587457	41.335182	44.962065	44.643984	-33.217393	-2600.103940	-3711.122812	145.359856	-170.223906	370.413723	-39.898546	13.994175	10.523015	6.800243	-45.000000	-44.984573	45.000000	-11.829930	-628.814087	-1900.334705	137.634967	180.000000	6.398889	15.244224	10.647974	-19.507379	
4.0400	40.490524	2.703784	10.296830	-99.878880	790.059071	-11.087606	17.698440	41.231395	44.931078	44.760588	-34.257313	-2600.410356	-3711.077458	145.435263	-169.736208	370.662908	-44.332370	13.954227	10.495468	7.100590	-45.000000	-44.972462	45.000000	-12.785864	-628.333542	-1900.059190	137.653604	180.000000	6.626692	14.788336	10.566015	-19.658434	
4.0500	40.496377	3.094955	10.657004	-105.139026	791.468159	-10.969994	17.900125	41.093152	44.879248	44.881268	-35.396180	-2600.756490	-3710.975462	145.449830	-169.318576	370.862016	-48.075633	13.904400	10.501382	7.472495	-45.000000	-44.950404	45.000000	-13.984873	-627.867869	-1899.708186	137.634054	180.000000	6.872183	14.306399	10.470176	-19.801705	
4.0600	40.469466	3.490328	10.932269	-110.513355	793.098289	-10.635863	18.002566	40.927383	44.776142	44.951670	-36.333735	-2601.167901	-3710.868254	145.464957	-168.752357	371.006538	-50.975967	13.861067	10.517822	7.844571	-45.000000	-44.911906	45.000000	-15.230736	-627.439511	-1899.309534	137.618732	180.000000	7.129744	13.809035	10.346370	-19.942991	
4.0700	40.403570	3.926409	11.190370	-115.982673	794.903047	-10.127361	18.071144	40.709843	44.620100	44.994335	-37.264547	-2601.587046	-3710.711019	145.460948	-168.155560	371.121909	-53.248437	13.784399	10.543267	8.219417	-45.000000	-44.840113	45.000000	-16.602745	-627.031352	-1898.864331	137.587342	180.000000	7.382759	13.308976	10.194699	-20.075048	
4.0800	40.307969	4.335123	11.358660	-121.496870	796.875308	-9.439567	17.982849	40.507360	44.416135	44.997425	-37.927715	-2602.036750	-3710.557028	145.512345	-167.316058	371.211462	-54.436128	13.722612	10.555295	8.521951	-45.000000	-44.719417	45.000000	-17.919613	-626.660545	-1898.401090	137.572786	180.000000	7.613881	12.847667	10.017643	-20.205986	
4.0900	40.166935	4.748202	11.486689	-126.980166	799.047327	-8.522437	17.815051	40.344004	44.194759	45.000000	-38.458803	-2602.508165	-3710.382805	145.588430	-166.266771	371.286067	-53.903076	13.699377	10.537359	8.735512	-45.000000	-44.531691	45.000000	-19.243097	-626.314049	-1897.909314	137.554353	180.000000	7.808431	12.487097	9.798518	-20.335486	
